# xmcd
#
# Track frame offsets:
#  150
#  11629
#  21422
#  32098
#  42308
#  52888
#  61051
#  73749
#  84402
#  95041
#  104591
#  116637
#  126347
#  137233
#  148238
#  160070
#  171741
#  184157
#  194931
#  204302
#  216193
#  227210
#  237447
#  247420
#  258517
#  267457
#  277179
#  288780
#  297472
#  308140
#  318916
#  330464
#
# Disc length: 4566 seconds
#
# Revision: 0
# Processed by: cddbd v1.5.2PL0 Copyright (c) Steve Scherf et al.
# Submitted via: AltoMP3_Maker 3.0
#
DISCID=0911d420
DTITLE=Various Artist - Columbia Hillbilly, Vol. 3
DYEAR=1900
DGENRE=
TTITLE0=Billy Walker - I Can't Keep the Girls Away
TTITLE1=Don Gibson - We're Steppin' Out Tonite
TTITLE2=Johnny Ragsdale - Engineer's Song
TTITLE3=Charlie Adams - Pistol Packin' Mama Laid Her Pistol Down
TTITLE4=Smiley Maxedon - Red Hot Mama and An Ice Cold Beer
TTITLE5=Lee Emerson and Marty Robbins - I'll Know You're Gone
TTITLE6=Little Jimmy Dickens - You Don't Have Love at All
TTITLE7=Neal Burris - Put a Little Sweetnin' (in Your Love)
TTITLE8=Rocky Porter - The World Is a Monster
TTITLE9=Ray Price - Much Too Young to Die
TTITLE10=Jimmy Boyd - I Wanna Go Steady
TTITLE11=Frankie Miller - Hey Where Ya Goin?
TTITLE12=Jeanette Hicks - Just Like in the Movies
TTITLE13=Vin Bruce - I Tried
TTITLE14=Joe Maphis and Rose Lee - I Gotta Lot of Lovin'
TTITLE15=Chuck Wells - Just A-Lookin' around
TTITLE16=Polly Possum - Sin in Satin
TTITLE17=Jimmy Littlejohn - I'm Mean When I'm Mad
TTITLE18=Danny and Harold - My Heart's Huntin' a New Home
TTITLE19=Lou Millet - Since the Devil Moved in
TTITLE20=Johnny Ragsdale - Calamity Jane
TTITLE21=Lee Emerson - I Cried Like a Baby
TTITLE22=Gordon Terry - Keep Right on Talking
TTITLE23=Jacoby Brothers - Who Ye Primpin' Fer?
TTITLE24=Mallie Anne and Slim - I'll Bear the Shame
TTITLE25=Zag Penell - T.L.C. (Tender Lovin' Care)
TTITLE26=Johnny Ragsdale - The Wrong Side of the Fence
TTITLE27=Neal Jones - You Can't Unkiss That Kiss
TTITLE28=Smiley Maxedon - Why Can't You Look Me in the Eye
TTITLE29=The Country Boys - Bud's Bounce
TTITLE30=Joe Maphis and Rose Lee - Honky Tonk Down Town
TTITLE31=Carl Smith and June Carter - Love O Crazy Love
EXTD=
EXTT0=
EXTT1=
EXTT2=
EXTT3=
EXTT4=
EXTT5=
EXTT6=
EXTT7=
EXTT8=
EXTT9=
EXTT10=
EXTT11=
EXTT12=
EXTT13=
EXTT14=
EXTT15=
EXTT16=
EXTT17=
EXTT18=
EXTT19=
EXTT20=
EXTT21=
EXTT22=
EXTT23=
EXTT24=
EXTT25=
EXTT26=
EXTT27=
EXTT28=
EXTT29=
EXTT30=
EXTT31=
PLAYORDER=
